<svg id="_8541544_calendar_event_icon" data-name="8541544_calendar_event_icon" xmlns="http://www.w3.org/2000/svg" width="24.292" height="27.762" viewBox="0 0 24.292 27.762">
  <path id="_8541544_calendar_event_icon-2" data-name="8541544_calendar_event_icon" d="M.651,10.411h22.99a.653.653,0,0,1,.651.651v14.1a2.6,2.6,0,0,1-2.6,2.6H2.6a2.6,2.6,0,0,1-2.6-2.6v-14.1A.653.653,0,0,1,.651,10.411ZM24.292,8.025V6.073a2.6,2.6,0,0,0-2.6-2.6h-2.6V.651A.653.653,0,0,0,18.436,0H16.267a.653.653,0,0,0-.651.651V3.47H8.676V.651A.653.653,0,0,0,8.025,0H5.856a.653.653,0,0,0-.651.651V3.47H2.6A2.6,2.6,0,0,0,0,6.073V8.025a.653.653,0,0,0,.651.651h22.99A.653.653,0,0,0,24.292,8.025Z" fill="#075d9d"/>
</svg>
