<svg xmlns="http://www.w3.org/2000/svg" width="1552" height="701" viewBox="0 0 1552 701">
  <g id="Group_2" data-name="Group 2" transform="translate(-311 -111)">
    <text id="J_biter" data-name="J  biter" transform="translate(311 680)" fill="#075d9d" font-size="527" font-family="SegoeUI, Segoe UI"><tspan x="0" y="0" xml:space="preserve">J  biter</tspan></text>
    <g id="svgg" transform="translate(400 551)">
      <g id="Group_1" data-name="Group 1" transform="translate(-273 -29)">
        <path id="path0" d="M173.823,43.749a119.281,119.281,0,0,0-22.411,4.566c-1.346.411-2.787.882-3.2,1.045s-2.025.759-3.578,1.324-4.24,1.68-5.97,2.478-3.187,1.452-3.239,1.452-1.815.935-3.917,2.077a111.18,111.18,0,0,0-54.474,69.3c-6.839,25.683-3.847,54.659,8.07,78.154,1.323,2.608,1.767,3.426,3.729,6.874a116.13,116.13,0,0,0,20.007,24.765c1.724,1.553,3.321,3,3.55,3.215,4.552,4.266,14.938,11.039,23.016,15.01,7.169,3.524,9.215,4.222,9.238,3.149.006-.259.178-2.081.382-4.049.716-6.881,1.207-12.253,1.255-13.724l.048-1.483-3.2-1.649a97.6,97.6,0,0,1-13.936-8.63c-12.91-10.106-22.88-22.693-28.738-36.284a81.692,81.692,0,0,1-3.691-9.7c-.186-.673-.52-1.859-.741-2.636A92.155,92.155,0,0,1,107.168,104.9a93.3,93.3,0,0,1,18.444-20.855c1.45-1.164,2.721-2.207,2.825-2.316,2.056-2.178,13.284-8.845,19.209-11.406,7.028-3.039,6.676-3.025,8.916-.357,1,1.191,1.91,2.251,2.023,2.354s1.278,1.46,2.591,3.014c2.892,3.421,5,5.91,7.343,8.661,1.38,1.621,1.712,2.265,1.535,2.971-.2.807-.559,4.014-1.136,10.213-.421,4.523-.984,10.15-1.339,13.371-.367,3.343-1.6,15.816-2.249,22.787-.184,1.968-.521,5.358-.749,7.533s-.573,5.65-.767,7.722-.527,5.461-.741,7.533c-.676,6.541-.992,11.29-.767,11.547a9.382,9.382,0,0,0,3.042-1.537c7.525-4.756,10.227-6.432,10.367-6.432.084,0,1.558-.9,3.274-2.011s3.3-2.08,3.519-2.166,2.168-1.274,4.331-2.642,5.8-3.638,8.076-5.045,5.305-3.309,6.724-4.227l2.581-1.669L204,140.367c-.119-.865-.473-4.284-.786-7.6-.708-7.5-1.3-13.417-1.565-15.631-.111-.932-.353-3.389-.538-5.461s-.51-5.461-.724-7.533-.554-5.546-.755-7.721-.536-5.388-.745-7.14c-.4-3.357-.327-3.657,1.354-5.484.384-.417,1.546-1.773,2.582-3.012,1.789-2.139,3.314-3.926,4.143-4.852.207-.232,1.224-1.436,2.26-2.677s2.268-2.7,2.739-3.233,1.083-1.287,1.36-1.666c.519-.71,4.219.62,4.219.62.111.179.818.325.818.325s9.891,4.488,12.88,6.245c8.075,4.746,18.834,14.171,24.475,21.439,1.286,1.657,2.6,3.334,2.919,3.726,7.13,8.758,13.871,25.308,16.279,39.965,3.98,24.237-3.934,53.487-19.279,71.248-6.355,7.356-10.4,11.276-16.278,15.787-4.059,3.113-15.1,9.116-16.2,9.575-1,0-.995,1.159.013,11.676.806,8.414,1.134,9.375,3.026,8.345,0,0,1.544-.8,2.994-1.4a108.907,108.907,0,0,0,18.518-10.4c3.266-2.2,3.1-2.191,4.825-.215.77.88,2.4,2.66,3.624,3.955,2.725,2.885,2.733,2.636-.164,5.062-3.662,3.067-5.138,5.942-4.579,8.921.467,2.49.875,3.007,12.2,15.475,5.872,6.463,7.349,8.094,10.394,11.475,1.658,1.84,3.183,3.531,3.39,3.758s1.733,1.937,3.39,3.8,3.861,4.3,4.9,5.417,2.053,2.222,2.26,2.459,1.14,1.279,2.072,2.316l4.9,5.448c1.761,1.958,4.142,4.58,5.291,5.826s3.436,3.784,5.084,5.643c10.7,12.068,13.053,12.745,20.3,5.843,1.05-1,2.333-2.182,2.851-2.626.862-.738,5.917-5.264,6.925-6.2.235-.219,2.2-2.007,4.374-3.975l5.609-5.085c3.013-2.732,3.518-3.315,4.223-4.867,1.654-3.64.723-6.141-4.37-11.747-6.608-7.273-11.657-12.84-12.951-14.281-1.643-1.828-11.376-12.625-11.908-13.208-.207-.227-1.733-1.909-3.39-3.737l-3.39-3.738c-.207-.227-1.128-1.258-2.046-2.29s-3.134-3.486-4.924-5.454c-2.665-2.93-5.958-6.589-14.113-15.684-6.71-7.483-9.859-7.761-16.486-1.459-2.156,2.051-2.05,2.042-3.645.288-.707-.777-2.359-2.577-3.67-4a16.718,16.718,0,0,1-2.385-2.953,34.423,34.423,0,0,1,3.78-4.816c1.26-1.176,9.4-12.719,9.4-13.329a29.25,29.25,0,0,1,1.452-2.546c1.646-2.712,6.457-12.673,6.457-13.369,0-.12.594-1.805,1.32-3.743s1.588-4.5,1.916-5.7.762-2.771.965-3.5a151.7,151.7,0,0,0,3.006-15.819c.72-4.784.6-21.3-.192-26.554a115.249,115.249,0,0,0-4.59-20.339,113.276,113.276,0,0,0-17.4-33.145c-6.64-8.5-17.856-19.429-23.379-22.692l-.5-.391-.7-.538a19.29,19.29,0,0,0-2.168-1.463c-.568-.332-2.474-1.5-4.235-2.586-2.576-1.6-10.078-5.416-14.124-7.194a113.371,113.371,0,0,0-11.864-4.106c-.933-.262-2.119-.617-2.637-.789-8.544-2.834-28.987-4.569-38.983-3.309" transform="translate(317 -155)" fill="#075d9d" fill-rule="evenodd"/>
        <path id="path2" d="M201.318,158.987c-2.926,1.935-6.627,4.231-11.846,7.348-.735.439-3.058,1.88-5.162,3.2s-5.21,3.25-6.9,4.286c-6.619,4.053-15.3,9.566-16.11,10.227-.724.593-.907,1.277-1.245,4.651-.218,2.175-.658,6.327-.977,9.227s-.726,7.053-.9,9.228c-.425,5.223-1.051,11.156-1.34,12.7-.257,1.369.479,1.734,1.358.674a1.531,1.531,0,0,1,.775-.565c.168,0,3.579-2.053,7.581-4.562s7.783-4.855,8.4-5.214,2.36-1.442,3.864-2.406a18.675,18.675,0,0,1,3.108-1.754.376.376,0,0,0,.373-.376.383.383,0,0,1,.387-.377,31.506,31.506,0,0,0,4.16-2.448c2.075-1.347,3.846-2.448,3.935-2.448s1.865-1.1,3.947-2.449,3.858-2.448,3.947-2.448,1.822-1.063,3.851-2.362,4.179-2.612,4.777-2.916l1.087-.554-.24-4.334c-.132-2.384-.4-5.691-.607-7.348s-.46-4.115-.573-5.461c-.667-7.969-1.675-15.834-2.024-15.789-.131.017-1.762,1.039-3.627,2.271" transform="translate(318 -164)" fill="#27b4fb" fill-rule="evenodd"/>
        <path id="path3" d="M203.766,207.518c-3,1.856-7.562,4.689-10.129,6.3s-5.026,3.115-5.462,3.349-3.335,2.029-6.442,3.99-7.854,4.9-10.547,6.526c-10.53,6.369-16.01,10.052-16.181,10.873-.295,1.414-1.392,11.577-1.713,15.874-.17,2.278-.435,5.468-.587,7.088l-.278,2.945,15.589,15.6c10.073,10.084,15.852,15.605,16.336,15.605.717,0,28.109-26.911,30.8-30.257l1.159-1.443-.649-6.655c-.357-3.66-.894-8.858-1.193-11.551-.514-4.63-.841-7.943-2.194-22.223-1.461-15.415-2-19.4-2.626-19.4a58.212,58.212,0,0,0-5.879,3.374" transform="translate(318.103 -169.93)" fill="#8dd2f2" fill-rule="evenodd"/>
        <path id="path4" d="M220.956,86.427c-6.552,2.336-6.678,9.844-.24,14.241,12.667,8.651,23.018,24,26.471,39.257,1.483,6.553,1.589,7.6,1.549,15.442-.041,8.19-.417,11.4-2.011,17.153-1.556,5.616-.42,9.113,3.557,10.949,4.458,2.057,9.207-.469,10.645-5.662,9.2-33.259-2.97-68.862-30.3-88.59-4.612-3.329-6.574-3.9-9.674-2.79" transform="matrix(0.985, -0.174, 0.174, 0.985, 297.102, -122.196)" fill="#dcdcdc" fill-rule="evenodd"/>
      </g>
    </g>
  </g>
</svg>
