<svg xmlns="http://www.w3.org/2000/svg" width="226" height="226" viewBox="0 0 226 226">
  <g id="Group_16" data-name="Group 16" transform="translate(-847 -407)">
    <circle id="Ellipse_1" data-name="Ellipse 1" cx="113" cy="113" r="113" transform="translate(847 407)" fill="#8dd2f2" opacity="0.15"/>
    <path id="_3671803_closed_lock_icon" data-name="3671803_closed_lock_icon" d="M21.333,54.222V40.667a40.667,40.667,0,0,1,81.333,0V54.222h6.778A13.556,13.556,0,0,1,123,67.778V122a13.556,13.556,0,0,1-13.556,13.556H14.556A13.556,13.556,0,0,1,1,122V67.778A13.6,13.6,0,0,1,14.556,54.222ZM55.222,99.837v15.386H68.778V99.837a13.556,13.556,0,1,0-13.556,0ZM41.667,40.667V54.222H82.333V40.667a20.333,20.333,0,1,0-40.667,0Z" transform="translate(902 448.222)" fill="#8dd2f2" opacity="0.45"/>
  </g>
</svg>
