<svg xmlns="http://www.w3.org/2000/svg" width="584" height="328.053" viewBox="0 0 584 328.053">
  <g id="Group_306" data-name="Group 306" transform="translate(-39 -220)">
    <path id="path16" d="M277.884-2175.7s-71.776-62.439-12.138-130.04c34.183-38.746,119.235,7.53,168.313-41.96s18-81,116-120,276-36,276-36v328H277.886" transform="translate(865.058 -1955.703) rotate(180)" fill="#8dd2f2" opacity="0.45"/>
    <g id="Group_2" data-name="Group 2" transform="translate(-165 142)">
      <text id="J_biter" data-name="J  biter" transform="translate(311 211)" fill="#075d9d" font-size="93" font-family="SegoeUI, Segoe UI"><tspan x="0" y="0" xml:space="preserve">J  biter</tspan></text>
      <g id="svgg" transform="translate(347.764 164.31)">
        <g id="Group_1" data-name="Group 1" transform="translate(0 0)">
          <path id="path0" d="M91.307,43.4a21.244,21.244,0,0,0-3.991.813c-.24.073-.5.157-.57.186s-.361.135-.637.236-.755.3-1.063.441-.568.259-.577.259-.323.167-.7.37a19.8,19.8,0,0,0-9.7,12.342,20.04,20.04,0,0,0,1.437,13.919c.236.464.315.61.664,1.224a20.682,20.682,0,0,0,3.563,4.411c.307.277.591.534.632.573a20.579,20.579,0,0,0,4.1,2.673c1.277.628,1.641.752,1.645.561,0-.046.032-.371.068-.721.128-1.226.215-2.182.224-2.444l.009-.264-.57-.294a17.383,17.383,0,0,1-2.482-1.537A16.781,16.781,0,0,1,78.24,69.69a14.548,14.548,0,0,1-.657-1.728c-.033-.12-.093-.331-.132-.469a16.413,16.413,0,0,1,1.985-13.2,16.617,16.617,0,0,1,3.285-3.714c.258-.207.485-.393.5-.412a17.8,17.8,0,0,1,3.421-2.031c1.252-.541,1.189-.539,1.588-.064.178.212.34.4.36.419s.228.26.461.537c.515.609.89,1.053,1.308,1.543.246.289.3.4.273.529-.036.144-.1.715-.2,1.819-.075.806-.175,1.808-.238,2.381-.065.6-.285,2.817-.4,4.058-.033.35-.093.954-.133,1.342s-.1,1.006-.137,1.375-.094.973-.132,1.342a13.728,13.728,0,0,0-.137,2.057A1.671,1.671,0,0,0,89.8,65.2c1.34-.847,1.821-1.146,1.846-1.146s.277-.16.583-.358.588-.37.627-.386.386-.227.771-.471,1.033-.648,1.438-.9.945-.589,1.2-.753l.46-.3-.039-.281c-.021-.154-.084-.763-.14-1.354-.126-1.336-.232-2.39-.279-2.784-.02-.166-.063-.6-.1-.973s-.091-.973-.129-1.342-.1-.988-.134-1.375-.1-.96-.133-1.272c-.071-.6-.058-.651.241-.977.068-.074.275-.316.46-.536.319-.381.59-.7.738-.864.037-.041.218-.256.4-.477s.4-.481.488-.576.193-.229.242-.3c.092-.126.751.11.751.11.02.032.146.058.146.058s1.762.8,2.294,1.112a18.069,18.069,0,0,1,4.359,3.818c.229.3.463.594.52.664a16.908,16.908,0,0,1,2.9,7.118,16.574,16.574,0,0,1-3.434,12.689,17.8,17.8,0,0,1-2.9,2.812,26.357,26.357,0,0,1-2.885,1.705c-.178,0-.177.206,0,2.079.144,1.5.2,1.67.539,1.486,0,0,.275-.142.533-.249a19.4,19.4,0,0,0,3.3-1.852c.582-.392.552-.39.859-.038.137.157.427.474.645.7.485.514.487.469-.029.9-.652.546-.915,1.058-.815,1.589.083.443.156.536,2.173,2.756,1.046,1.151,1.309,1.442,1.851,2.044l.6.669c.037.04.309.345.6.677s.688.766.873.965.366.4.4.438.2.228.369.412l.873.97c.314.349.738.816.942,1.038s.612.674.905,1c1.906,2.149,2.325,2.27,3.615,1.041.187-.178.416-.389.508-.468.154-.131,1.054-.937,1.233-1.1.042-.039.392-.357.779-.708l1-.906c.537-.487.627-.59.752-.867.295-.648.129-1.094-.778-2.092-1.177-1.3-2.076-2.287-2.307-2.543-.293-.326-2.026-2.248-2.121-2.352l-.6-.666-.6-.666-.364-.408c-.163-.184-.558-.621-.877-.971-.475-.522-1.061-1.173-2.514-2.793-1.2-1.333-1.756-1.382-2.936-.26-.384.365-.365.364-.649.051-.126-.138-.42-.459-.654-.712a2.977,2.977,0,0,1-.425-.526,6.129,6.129,0,0,1,.673-.858,22.405,22.405,0,0,0,1.674-2.374,5.2,5.2,0,0,1,.259-.453,21.282,21.282,0,0,0,1.15-2.381c0-.021.106-.321.235-.667s.283-.8.341-1.015.136-.494.172-.623a27.018,27.018,0,0,0,.535-2.817,27.8,27.8,0,0,0-.034-4.729,20.527,20.527,0,0,0-.817-3.622,20.175,20.175,0,0,0-3.1-5.9,21.027,21.027,0,0,0-4.164-4.041l-.089-.07-.125-.1a3.437,3.437,0,0,0-.386-.261c-.1-.059-.441-.267-.754-.461-.459-.285-1.795-.965-2.515-1.281a20.192,20.192,0,0,0-2.113-.731c-.166-.047-.377-.11-.47-.141a21.755,21.755,0,0,0-6.943-.589" transform="translate(-73.427 -43.33)" fill="#075d9d" fill-rule="evenodd"/>
          <path id="path2" d="M164.717,157.121c-.521.345-1.18.754-2.11,1.309-.131.078-.545.335-.919.57s-.928.579-1.229.763c-1.179.722-2.725,1.7-2.869,1.821-.129.106-.162.227-.222.828-.039.387-.117,1.127-.174,1.643s-.129,1.256-.16,1.643c-.076.93-.187,1.987-.239,2.262-.046.244.085.309.242.12a.273.273,0,0,1,.138-.1c.03,0,.637-.366,1.35-.812s1.386-.865,1.5-.929.42-.257.688-.429a3.331,3.331,0,0,1,.554-.312.067.067,0,0,0,.066-.067.068.068,0,0,1,.069-.067,5.616,5.616,0,0,0,.741-.436c.37-.24.685-.436.7-.436s.332-.2.7-.436.687-.436.7-.436.325-.189.686-.421.744-.465.851-.519l.194-.1-.043-.772c-.023-.425-.071-1.014-.108-1.309s-.082-.733-.1-.973a18.382,18.382,0,0,0-.36-2.812c-.023,0-.314.185-.646.4" transform="translate(-141.762 -138.126)" fill="#27b4fb" fill-rule="evenodd"/>
          <path id="path3" d="M161.57,204.741c-.534.331-1.347.835-1.8,1.122s-.9.555-.973.6-.594.361-1.147.711-1.4.873-1.878,1.162a15.4,15.4,0,0,0-2.882,1.936c-.053.252-.248,2.062-.305,2.827-.03.406-.077.974-.1,1.262l-.05.524,2.776,2.778a35.715,35.715,0,0,0,2.909,2.779c.128,0,5.006-4.793,5.485-5.389l.206-.257-.116-1.185c-.064-.652-.159-1.578-.212-2.057-.092-.825-.15-1.415-.391-3.958-.26-2.745-.356-3.455-.468-3.455a10.363,10.363,0,0,0-1.047.6" transform="translate(-138.161 -178.158)" fill="#8dd2f2" fill-rule="evenodd"/>
          <path id="path4" d="M.889.092C-.278.508-.3,1.845.846,2.628A12.122,12.122,0,0,1,5.561,9.62a8.726,8.726,0,0,1,.276,2.75,9.667,9.667,0,0,1-.358,3.055c-.277,1-.075,1.623.633,1.95a1.363,1.363,0,0,0,1.9-1.008A14.663,14.663,0,0,0,2.611.589C1.79,0,1.441-.106.889.092" transform="matrix(0.985, -0.174, 0.174, 0.985, 23.927, 6.504)" fill="#dcdcdc" fill-rule="evenodd"/>
        </g>
      </g>
    </g>
  </g>
</svg>
